<svg width="143" height="24" xmlns="http://www.w3.org/2000/svg" fill="none">

 <g>
  <title>Layer 1</title>
  <path id="svg_1" fill="#ffffff" d="m18.18658,3.04547l-3.70001,6.57303c-0.44805,0.7959 -0.68443,1.6934 -0.68656,2.6067c-0.00212,0.9133 0.2301,1.8119 0.67445,2.6098l3.6877,6.6233c0.46271,0.8311 1.13909,1.5235 1.95914,2.0055c0.82006,0.482 1.75401,0.7362 2.70524,0.7362l3.92356,0l-5.33378,-9.2751c-0.46563,-0.8098 -0.71067,-1.7275 -0.71067,-2.6616c0,-0.9341 0.24504,-1.8518 0.71067,-2.6616l5.33378,-9.27528l-3.91125,0c-0.94692,-0.00007 -1.87682,0.2517 -2.69435,0.72951c-0.81753,0.47781 -1.49326,1.16446 -1.95792,1.98954z"/>
  <path id="svg_2" fill="#C2C8CE" d="m27.2335,2.91903l-3.70005,6.57298c-0.44805,0.79589 -0.68444,1.69339 -0.68656,2.60669c-0.00212,0.9133 0.23009,1.8119 0.67444,2.6098l3.68757,6.6232c0.4627,0.8311 1.1391,1.5235 1.9592,2.0055c0.8201,0.4821 1.7541,0.7362 2.7054,0.7362l3.9235,0l-5.3337,-9.2752c-0.4658,-0.8097 -0.7109,-1.7275 -0.7109,-2.6616c0,-0.9341 0.2451,-1.8519 0.7109,-2.66158l5.3337,-9.27502l-3.9108,0c-0.947,-0.00018 -1.877,0.25154 -2.6946,0.72935c-0.8177,0.47782 -1.4934,1.16452 -1.9581,1.98968z"/>
  <path id="svg_3" fill="#ffffff" d="m33.7727,7.5131l1.5805,3.1156l5.3142,0c0.8025,0 1.3091,-0.86214 0.9195,-1.56296l-4.3092,-7.74878l-3.505,6.19614z"/>
  <path stroke="#ffffff" id="svg_4" fill="#ffffff" d="m35.4066,13.8956l-1.6339,2.722l3.505,6.6583l4.3178,-7.8194c0.387,-0.7014 -0.1202,-1.5609 -0.9212,-1.5609l-5.2677,0z"/>
  <path id="svg_6" fill="#ffffff" d="m81.1916,13.1641l6.4682,9.6878l4.1188,0l-6.8743,-9.6878l-3.7127,0zm-4.1768,-10.61603l0,20.30383l3.4227,0l0,-20.30383l-3.4227,0zm2.0304,2.95856l4.0898,0c0.7735,0 1.4503,0.13536 2.0304,0.40608c0.5994,0.27071 1.0635,0.65745 1.3922,1.16022c0.3288,0.50276 0.4931,1.12155 0.4931,1.85635c0,0.71547 -0.1643,1.33422 -0.4931,1.85632c-0.3287,0.5028 -0.7928,0.8895 -1.3922,1.1603c-0.5801,0.2707 -1.2569,0.406 -2.0304,0.406l-4.0898,0l0,2.8136l4.2348,0c1.4696,0 2.7459,-0.2611 3.8287,-0.7832c1.1023,-0.5221 1.9531,-1.2569 2.5525,-2.2044c0.5995,-0.9475 0.8992,-2.05939 0.8992,-3.33563c0,-1.27625 -0.2997,-2.37846 -0.8992,-3.30663c-0.5994,-0.94752 -1.4502,-1.68233 -2.5525,-2.20442c-1.0828,-0.5221 -2.3591,-0.78315 -3.8287,-0.78315l-4.2348,0l0,2.95856z"/>
  <path id="svg_8" fill="#ffffff" d="m112.453,2.54807l0,20.30383l3.4227,0l0,-20.30383l-3.4227,0zm2.0304,3.01657l4.0898,0c1.1796,0 2.1271,0.28039 2.8425,0.84116c0.7155,0.54144 1.0732,1.35359 1.0732,2.43647c0,1.08287 -0.3577,1.90473 -1.0732,2.46543c-0.7154,0.5608 -1.6629,0.8412 -2.8425,0.8412l-4.0898,0l0,3.0166l4.0898,0c1.4696,0 2.7459,-0.2514 3.8287,-0.7542c1.1022,-0.5221 1.9531,-1.2569 2.5521,-2.2044c0.6,-0.9475 0.9,-2.06905 0.9,-3.36463c0,-1.29558 -0.3,-2.40746 -0.9,-3.33564c-0.599,-0.94751 -1.4499,-1.67265 -2.5521,-2.17541c-1.0828,-0.5221 -2.3591,-0.78315 -3.8287,-0.78315l-4.0898,0l0,3.01657z"/>
  <path id="svg_11" fill="#ffffff" d="m96.471,12.5c0,-1.4503 0.319,-2.70718 0.957,-3.77072c0.658,-1.08287 1.509,-1.91436 2.553,-2.49447c1.063,-0.59945 2.214,-0.89917 3.451,-0.89917c0.967,0 1.837,0.12569 2.611,0.37707c0.773,0.25138 1.47,0.59944 2.088,1.0442c0.638,0.42541 1.19,0.90884 1.654,1.45027l0,-4.06077c-0.851,-0.69613 -1.77,-1.2279 -2.756,-1.5953c-0.986,-0.36741 -2.224,-0.55111 -3.713,-0.55111c-1.489,0 -2.881,0.25138 -4.176,0.75414c-1.277,0.50277 -2.388,1.2279 -3.336,2.17542c-0.948,0.94751 -1.692,2.06906 -2.233,3.36464c-0.523,1.27624 -0.784,2.6782 -0.784,4.2058c0,1.5276 0.261,2.9392 0.784,4.2348c0.541,1.2763 1.285,2.3881 2.233,3.3356c0.948,0.9476 2.059,1.6727 3.336,2.1755c1.295,0.5027 2.687,0.7541 4.176,0.7541c1.489,0 2.727,-0.1837 3.713,-0.5511c0.986,-0.3674 1.905,-0.8992 2.756,-1.5953l0,-4.0608c-0.464,0.5415 -1.016,1.0345 -1.654,1.4793c-0.618,0.4254 -1.315,0.7638 -2.088,1.0152c-0.774,0.2514 -1.644,0.3771 -2.611,0.3771c-1.237,0 -2.388,-0.2901 -3.451,-0.8702c-1.044,-0.5994 -1.895,-1.4406 -2.553,-2.5235c-0.638,-1.0829 -0.957,-2.3398 -0.957,-3.7707z"/>
  <g id="svg_13">
   <path id="svg_5" fill="#ffffff" d="m56.52915,12.7c0,-1.4503 0.3191,-2.70718 0.9572,-3.77072c0.6574,-1.08287 1.5083,-1.91436 2.5525,-2.49447c1.0635,-0.59945 2.2141,-0.89917 3.4516,-0.89917c0.9669,0 1.837,0.12569 2.6105,0.37707c0.7735,0.25138 1.4696,0.59944 2.0884,1.0442c0.6381,0.42541 1.1892,0.90884 1.6533,1.45027l0,-4.06077c-0.8508,-0.69613 -1.7693,-1.2279 -2.7555,-1.5953c-0.9862,-0.36741 -2.2237,-0.55111 -3.7127,-0.55111c-1.4889,0 -2.8812,0.25138 -4.1768,0.75414c-1.2762,0.50277 -2.3881,1.2279 -3.3356,2.17542c-0.9475,0.94751 -1.692,2.06906 -2.2335,3.36464c-0.5221,1.27624 -0.7831,2.6782 -0.7831,4.2058c0,1.5276 0.261,2.9392 0.7831,4.2348c0.5415,1.2763 1.286,2.3881 2.2335,3.3356c0.9475,0.9476 2.0594,1.6727 3.3356,2.1755c1.2956,0.5027 2.6879,0.7541 4.1768,0.7541c1.489,0 2.7265,-0.1837 3.7127,-0.5511c0.9862,-0.3674 1.9047,-0.8992 2.7555,-1.5953l0,-4.0608c-0.4641,0.5415 -1.0152,1.0345 -1.6533,1.4793c-0.6188,0.4254 -1.3149,0.7638 -2.0884,1.0152c-0.7735,0.2514 -1.6436,0.3771 -2.6105,0.3771c-1.2375,0 -2.3881,-0.2901 -3.4516,-0.8702c-1.0442,-0.5994 -1.8951,-1.4406 -2.5525,-2.5235c-0.6381,-1.0829 -0.9572,-2.3398 -0.9572,-3.7707z"/>
   <path transform="rotate(180 65.435 12.7)" id="svg_12" fill="#ffffff" d="m60.62006,12.7c0,-1.4503 0.3191,-2.70718 0.9572,-3.77072c0.6574,-1.08287 1.5083,-1.91436 2.5525,-2.49447c1.0635,-0.59945 2.2141,-0.89917 3.4516,-0.89917c0.9669,0 1.837,0.12569 2.6105,0.37707c0.7735,0.25138 1.4696,0.59944 2.0884,1.0442c0.6381,0.42541 1.1892,0.90884 1.6533,1.45027l0,-4.06077c-0.8508,-0.69613 -1.7693,-1.2279 -2.7555,-1.5953c-0.9862,-0.36741 -2.2237,-0.55111 -3.7127,-0.55111c-1.4889,0 -2.8812,0.25138 -4.1768,0.75414c-1.2762,0.50277 -2.3881,1.2279 -3.3356,2.17542c-0.9475,0.94751 -1.692,2.06906 -2.2335,3.36464c-0.5221,1.27624 -0.7831,2.6782 -0.7831,4.2058c0,1.5276 0.261,2.9392 0.7831,4.2348c0.5415,1.2763 1.286,2.3881 2.2335,3.3356c0.9475,0.9476 2.0594,1.6727 3.3356,2.1755c1.2956,0.5027 2.6879,0.7541 4.1768,0.7541c1.489,0 2.7265,-0.1837 3.7127,-0.5511c0.9862,-0.3674 1.9047,-0.8992 2.7555,-1.5953l0,-4.0608c-0.4641,0.5415 -1.0152,1.0345 -1.6533,1.4793c-0.6188,0.4254 -1.3149,0.7638 -2.0884,1.0152c-0.7735,0.2514 -1.6436,0.3771 -2.6105,0.3771c-1.2375,0 -2.3881,-0.2901 -3.4516,-0.8702c-1.0442,-0.5994 -1.8951,-1.4406 -2.5525,-2.5235c-0.6381,-1.0829 -0.9572,-2.3398 -0.9572,-3.7707z"/>
  </g>
 </g>
</svg>